<?xml version="1.0" encoding="UTF-8"?><svg id="uuid-16c9bb07-ff57-4680-aef4-240fbdcf917d" xmlns="http://www.w3.org/2000/svg" viewBox="0 0 98.03 121.59"><defs><style>.uuid-9bd6f35a-cd36-43b0-b7cb-cf99a02dddbb{fill:#f0ede7;}</style></defs><g id="uuid-4ceaa839-0798-4cf6-9844-8bde4176e2b9"><g><g><path class="uuid-9bd6f35a-cd36-43b0-b7cb-cf99a02dddbb" d="m16.32.13c3.7-.06,3.63,5.95,0,6.08h-6.58c-1.5,0-3.01.81-3.01,2.76v7.08c-.06,1.57.69,2.88,2.32,2.82h5.01c3.63-.06,3.63,5.95,0,6.02h-5.14c-1.19,0-2.19.75-2.19,2.63v13.28c0,4.32-6.08,4.2-6.01.06v-20.24c0-5.64-.06-11.4,0-17.04C.72.76,2.34.07,4.48.13h11.84Z"/><path class="uuid-9bd6f35a-cd36-43b0-b7cb-cf99a02dddbb" d="m25.09,22.06V3.95C25.09,1.63,27.28-.12,28.91.07h9.15c5.7,0,9.08,6.7,9.27,13.41.12,4.76-.88,7.14-3.38,10.96-.94,1.5-2,3.51-.44,6.2l3.88,8.9c1.82,3.7-3.7,6.39-5.51,2.51l-5.7-11.97c-1.25-2.69-5.01-2.13-5.01,1.19v9.52c.06,4.14-6.01,4.2-6.01-.12l-.06-18.61Zm9.21-1.19h2.57c3.13,0,4.76-3.82,4.64-7.58-.13-3.63-1.88-7.21-5.39-7.21h-1.94c-1.44,0-2.94,1.06-3.01,3.01v8.9c0,1.57,1.38,3.01,3.13,2.88Z"/><path class="uuid-9bd6f35a-cd36-43b0-b7cb-cf99a02dddbb" d="m70.14,0c3.63-.06,3.57,5.95,0,6.08h-6.58c-1.5,0-3.01.81-3.01,2.76v7.08c-.06,1.63.69,2.88,2.26,2.82h5.01c3.7-.06,3.63,5.95.06,6.01h-5.2c-1.13,0-2.19.75-2.13,2.63.12,2.32,0,4.64,0,7.02,0,1.57.38,3.38,2.82,3.38h6.77c3.63-.06,3.57,5.95-.06,6.08h-11.84c-3.51,0-3.76-2.19-3.76-4.39v-18.98c0-5.64,0-11.4.06-17.04C54.54.63,56.17-.06,58.3,0h11.84Z"/><path class="uuid-9bd6f35a-cd36-43b0-b7cb-cf99a02dddbb" d="m95.32,0c3.63-.06,3.57,5.95,0,6.08h-6.58c-1.5,0-3.01.81-3.01,2.76v7.08c-.06,1.63.69,2.88,2.26,2.82h5.01c3.7-.06,3.63,5.95.06,6.01h-5.2c-1.13,0-2.19.75-2.13,2.63.12,2.32,0,4.64,0,7.02,0,1.57.38,3.38,2.82,3.38h6.77c3.63-.06,3.57,5.95-.06,6.08h-11.84c-3.51,0-3.76-2.19-3.76-4.39v-18.98c0-5.64,0-11.4.06-17.04,0-2.82,1.63-3.51,3.76-3.45h11.84Z"/><path class="uuid-9bd6f35a-cd36-43b0-b7cb-cf99a02dddbb" d="m10.87,40.04c5.01.5,7.89,4.26,8.77,8.58.5,2.25.44,4.13-.25,6.39-.5,1.75-1.19,3.2-1.13,4.57.06,1.32,1,1.88,2.13,3.51,1.69,2.44,2.32,6.08,2.19,8.83-.31,5.39-3.57,10.78-8.65,11.72-1.5.44-6.7.25-9.46.25-3.51-.06-3.76-2.19-3.76-4.39v-36.03c.06-2.82,1.63-3.51,3.82-3.45,2.76,0,3.2-.06,6.33,0Zm-4.26,33.83c-.06,1.38.31,3.13,2.69,3.13h2.13c6.7,0,6.08-12.22.31-12.22h-2.44c-2.07,0-2.51,1.25-2.63,2.88-.06,1.57-.13,4.2-.06,6.2Zm.13-18.04c0,.94.31,2.19,1.82,2.19h1.69c4.76-.06,5.39-10.84-.13-10.84h-1c-1.57,0-2.26.63-2.32,2.38,0,2.07-.06,4.13-.06,6.27Z"/><path class="uuid-9bd6f35a-cd36-43b0-b7cb-cf99a02dddbb" d="m29.6,60.22v-16.92c0-4.32,6.08-4.2,6.08-.06v37.59c0,4.2-6.08,4.26-6.08-.06v-20.55Z"/><path class="uuid-9bd6f35a-cd36-43b0-b7cb-cf99a02dddbb" d="m42.88,62.09v-18.11c0-2.32,2.13-4.07,3.76-3.88h9.21c8.33.06,11.65,14.41,7.27,22.24-.81,1.57-1.19,2.32-.31,4.01,2,4.13.94,13.41,1.57,18.67.5,4.76,4.45,7.96,8.83,8.77,3.82.69,7.52-.25,10.71-2.51.69-.5,1.63-.69,2.44-.44.94.19,1.69.88,2.07,1.69.5,1,.31,2.26-.38,3.13-.31.5-.88.81-1.32,1.13-3.95,2.57-8.77,3.76-13.47,3.2-7.46-1-13.97-6.27-14.97-14.1-.5-4.26.19-13.16-.69-16.04-.19-.75-.63-1.44-1.32-1.82-.63-.38-1.19-.56-1.75-.63-.88-.19-1.69-.06-2.69-.06-1.19,0-2.94,1.5-2.94,3.32v10.15c.06,4.13-6.01,4.26-6.01-.06v-18.67Zm9.21-1.19h2.51c6.2,0,6.45-14.72-.75-14.72h-1.94c-1.38-.06-2.94,1-3.01,2.94v8.9c0,1.57,1.38,3.01,3.2,2.88Z"/><path class="uuid-9bd6f35a-cd36-43b0-b7cb-cf99a02dddbb" d="m84.74,40.67c7.96,1.88,10.27,14.16,10.27,21.49s-2.32,19.67-10.27,21.55c-2.26.5-5.01.44-8.65.44-1.19-.06-3.76-.44-3.76-3.32v-37.22c0-2.82,2.57-3.26,3.76-3.26,3.63-.06,6.39-.19,8.65.31Zm-2.57,6.64h-1.69c-1.82,0-1.88,2.44-1.82,3.88v22.05c-.06,1.44,0,3.88,1.82,3.88h1.69c4.01,0,6.45-7.52,6.45-14.97s-2.44-14.85-6.45-14.85Z"/></g><g><path class="uuid-9bd6f35a-cd36-43b0-b7cb-cf99a02dddbb" d="m.04,97.51v-4.63c0-1.01,1.23-1.24,1.63-.31l1.73,4.2c.36.82.63.89.99-.03l1.68-4.12c.43-1.01,1.54-.7,1.65.09v10.41c0,1.18-1.66,1.17-1.65.03v-4.79c.03-.58-.39-.46-.48-.21-.33.79-.57,1.37-.89,2.14-.33.81-1.29.84-1.63.04l-.87-2.13c-.19-.45-.51-.12-.5.07v4.87c0,1.13-1.66,1.15-1.66-.03v-5.61Z"/><path class="uuid-9bd6f35a-cd36-43b0-b7cb-cf99a02dddbb" d="m13.04,101.08c-.02-1.01-.02-2.02-.02-3.05s0-2.08.02-3.12c.05-3.93,5.63-3.86,5.64.07v6.05c-.02,3.93-5.59,4-5.64.05Zm3.94-3.12v-3.14c0-1.54-2.35-1.61-2.3.17v6.02c-.05,1.78,2.3,1.71,2.3.17v-3.22Z"/><path class="uuid-9bd6f35a-cd36-43b0-b7cb-cf99a02dddbb" d="m25.61,97.55l-.02-2.98c-.02-.62-.36-.72-.82-.7h-.77c-1.15.02-1.18-1.83,0-1.83h4.89c1.18,0,1.17,1.83.02,1.82l-.98.02c-.5-.02-.67.14-.67.7v8.59c.02,1.13-1.65,1.17-1.65-.02v-5.59Z"/><path class="uuid-9bd6f35a-cd36-43b0-b7cb-cf99a02dddbb" d="m34.87,101.08c-.02-1.01-.02-2.02-.02-3.05s0-2.08.02-3.12c.05-3.93,5.63-3.86,5.64.07v6.05c-.02,3.93-5.59,4-5.64.05Zm3.94-3.12v-3.14c0-1.54-2.35-1.61-2.3.17v6.02c-.05,1.78,2.3,1.71,2.3.17v-3.22Z"/><path class="uuid-9bd6f35a-cd36-43b0-b7cb-cf99a02dddbb" d="m45.87,98.03v-4.96c0-.63.6-1.11,1.05-1.06h2.5c1.56,0,2.49,1.83,2.54,3.67.03,1.3-.24,1.96-.93,3-.26.41-.55.96-.12,1.7l1.06,2.44c.5,1.01-1.01,1.75-1.51.69l-1.56-3.28c-.34-.74-1.37-.58-1.37.33v2.61c.02,1.13-1.65,1.15-1.65-.03l-.02-5.09Zm2.52-.33h.7c.86,0,1.3-1.05,1.27-2.08-.03-1-.51-1.97-1.48-1.97h-.53c-.39,0-.81.29-.82.82v2.44c0,.43.38.82.86.79Z"/><path class="uuid-9bd6f35a-cd36-43b0-b7cb-cf99a02dddbb" d="m2.44,119.88h1.83c1.01-.02.99,1.63,0,1.66H1.01c-.96-.02-1.03-.62-1.01-1.2v-10.03c0-1.18,1.66-1.17,1.65-.03v8.68c0,.43.1.93.79.93Z"/><path class="uuid-9bd6f35a-cd36-43b0-b7cb-cf99a02dddbb" d="m10.36,118.62c-.02-1.01-.02-2.02-.02-3.05s0-2.08.02-3.12c.05-3.93,5.63-3.86,5.64.07v6.05c-.02,3.93-5.59,4-5.64.05Zm3.94-3.12v-3.14c0-1.54-2.35-1.61-2.3.17v6.02c-.05,1.78,2.3,1.71,2.3.17v-3.22Z"/><path class="uuid-9bd6f35a-cd36-43b0-b7cb-cf99a02dddbb" d="m24.79,109.69c2.18.51,2.81,3.88,2.81,5.88s-.63,5.38-2.81,5.9c-.62.14-1.37.12-2.37.12-.33-.02-1.03-.12-1.03-.91v-10.19c0-.77.7-.89,1.03-.89.99-.02,1.75-.05,2.37.09Zm-.7,1.82h-.46c-.5,0-.51.67-.5,1.06v6.04c-.02.39,0,1.06.5,1.06h.46c1.1,0,1.77-2.06,1.77-4.1s-.67-4.07-1.77-4.07Z"/><path class="uuid-9bd6f35a-cd36-43b0-b7cb-cf99a02dddbb" d="m34.53,119.4c.15.27.46.45,1.01.41.58-.04,1.15-.22,1.17-1.13l.02-.75c0-.31-.33-.46-.46-.46h-.24c-1-.02-1-1.7,0-1.68h1.47c.77.02.93.41.93.96v1.97c0,.55-.12,1.11-.43,1.59-.48.79-1.48,1.22-2.47,1.27-.94.03-1.9-.29-2.4-1.03-.39-.55-.5-1.41-.48-2.08v-5.8c0-.67.09-1.53.48-2.08.48-.7,1.37-1.03,2.3-1.03,1.01.02,2.08.45,2.57,1.27.31.48.43,1.05.43,1.6v.87c.03,1-1.68,1.18-1.7.02l-.02-.86c-.02-.74-.58-1.12-1.17-1.13-.6-.03-1.2.29-1.18.98v3.17l-.02,2.92c0,.39.05.74.19.99Z"/><path class="uuid-9bd6f35a-cd36-43b0-b7cb-cf99a02dddbb" d="m48.03,109.53c.99-.02.98,1.63,0,1.66h-1.8c-.41,0-.82.22-.82.75v1.94c-.02.45.19.79.62.77h1.37c1.01-.02,1,1.63.02,1.65h-1.42c-.31,0-.6.21-.58.72.03.63,0,1.27,0,1.92,0,.43.1.93.77.93h1.85c.99-.02.98,1.63-.02,1.66h-3.24c-.96,0-1.03-.6-1.03-1.2v-5.2c0-1.54,0-3.12.02-4.67,0-.77.45-.96,1.03-.94h3.24Z"/></g></g></g></svg>