<?xml version="1.0" encoding="UTF-8"?><svg id="uuid-6da6c57b-f4e5-42ef-a8f3-b9ad658b5cbb" xmlns="http://www.w3.org/2000/svg" viewBox="0 0 224.06 55.4"><defs><style>.uuid-4af94751-1674-4a27-8ee9-c9e00d0f55e4{fill:#f8f3eb;}</style></defs><g id="uuid-467fb61d-8586-42f6-9dac-7be5a6950ccb"><g><path class="uuid-4af94751-1674-4a27-8ee9-c9e00d0f55e4" d="m2.32,3.9c0-2.19-.81-2.68-2.32-3.17v-.42h15.34c7.1,0,10.6,3.03,10.6,6.96,0,4.14-3.44,6.96-10.17,6.96l9.05,9.02c1.83,1.74,3.04,2.26,3.84,2.58v.38h-6.51s-13.33-13.44-13.33-13.44v-.49h5.98c4.25,0,6.23-2.16,6.23-5.01s-1.98-4.94-6.23-4.94h-6.69c-.99,0-1.67.03-1.67,1.39v18.98c0,2.09.77,2.65,2.32,3.13v.38H0v-.38c1.52-.49,2.32-1.04,2.32-3.13V3.9Z"/><path class="uuid-4af94751-1674-4a27-8ee9-c9e00d0f55e4" d="m43.26,2.33v9.61s9.86,0,9.86,0c1.58,0,2.17-1.11,2.54-2.75h.37s-.56,7.31-.56,7.31h-.37c-.12-1.04-.56-2.54-2.42-2.54h-9.42s0,8.88,0,8.88c0,.98.46,1.43,1.27,1.43h12.06c2.57,0,3.84-2.16,4.59-3.66h.37s-1.3,5.61-1.3,5.61h-23.58v-.38c1.55-.49,2.32-1.04,2.32-3.13V3.9c0-2.19-.77-2.68-2.32-3.17v-.42h21.63c.71.03,1.43.14,2.01-.31h.34s-.62,5.61-.62,5.61h-.34c-.09-1.04-.4-3.27-2.14-3.27h-14.29Z"/><path class="uuid-4af94751-1674-4a27-8ee9-c9e00d0f55e4" d="m84.36,26.99h-.37s-12.95-22.77-12.95-22.77c-1.7-2.96-3.35-3.31-3.97-3.48v-.42h10.44v.42c-1.33.45-2.94,1.25-2.2,2.58l9.92,17.69,10.13-17.65c.77-1.29-.53-2.16-1.95-2.61v-.42h7.93v.42c-.71.21-2.48.91-4.06,3.66l-12.92,22.6Z"/><path class="uuid-4af94751-1674-4a27-8ee9-c9e00d0f55e4" d="m114.02,2.33v9.61s9.86,0,9.86,0c1.58,0,2.17-1.11,2.54-2.75h.37s-.56,7.31-.56,7.31h-.37c-.12-1.04-.56-2.54-2.42-2.54h-9.42s0,8.88,0,8.88c0,.98.46,1.43,1.27,1.43h12.06c2.57,0,3.84-2.16,4.59-3.66h.37s-1.3,5.61-1.3,5.61h-23.58v-.38c1.55-.49,2.32-1.04,2.32-3.13V3.9c0-2.19-.77-2.68-2.32-3.17v-.42h21.63c.71.03,1.43.14,2.01-.31h.34s-.62,5.61-.62,5.61h-.34c-.09-1.04-.4-3.27-2.14-3.27h-14.29Z"/><path class="uuid-4af94751-1674-4a27-8ee9-c9e00d0f55e4" d="m143.27,3.9c0-2.19-.81-2.68-2.32-3.17v-.42h15.34c7.1,0,10.6,3.03,10.6,6.96,0,4.14-3.44,6.96-10.17,6.96l9.05,9.02c1.83,1.74,3.04,2.26,3.84,2.58v.38h-6.51s-13.33-13.44-13.33-13.44v-.49h5.98c4.25,0,6.23-2.16,6.23-5.01,0-2.86-1.98-4.94-6.23-4.94h-6.69c-.99,0-1.67.03-1.67,1.39v18.98c0,2.09.77,2.65,2.32,3.13v.38h-8.77v-.38c1.52-.49,2.32-1.04,2.32-3.13V3.9Z"/><path class="uuid-4af94751-1674-4a27-8ee9-c9e00d0f55e4" d="m186.45.31v.42c-1.52.49-2.39,1.04-2.39,3.17v19.15c0,1.78.87,2.33,2.39,2.79v.38h-8.83v-.38c1.43-.45,2.32-.97,2.32-2.79V3.9c0-2.19-.74-2.65-2.32-3.17v-.42h8.83Z"/><path class="uuid-4af94751-1674-4a27-8ee9-c9e00d0f55e4" d="m202.28,2.33v9.61s9.86,0,9.86,0c1.58,0,2.17-1.11,2.54-2.75h.37s-.56,7.31-.56,7.31h-.37c-.12-1.04-.56-2.54-2.42-2.54h-9.42s0,8.88,0,8.88c0,.98.46,1.43,1.27,1.43h12.06c2.57,0,3.84-2.16,4.59-3.66h.37s-1.3,5.61-1.3,5.61h-23.58v-.38c1.55-.49,2.32-1.04,2.32-3.13V3.9c0-2.19-.77-2.68-2.32-3.17v-.42h21.63c.71.03,1.43.14,2.01-.31h.34s-.62,5.61-.62,5.61h-.34c-.09-1.04-.4-3.27-2.14-3.27h-14.29Z"/></g><g><path class="uuid-4af94751-1674-4a27-8ee9-c9e00d0f55e4" d="m12.31,50.88c0,1.88-1.54,2.87-4.01,2.87H.79v-10.47h7.07c2.3,0,3.84.94,3.84,2.66,0,1.2-.73,2.27-2.27,2.38,1.63.1,2.87.85,2.87,2.56Zm-9.75-3.19h5.02c1.41,0,2.35-.31,2.35-1.47s-.94-1.45-2.35-1.45H2.56s0,2.92,0,2.92Zm7.91,3.01c0-1.18-.94-1.56-2.51-1.56H2.56s0,3.11,0,3.11h5.4c1.57,0,2.51-.37,2.51-1.56Z"/><path class="uuid-4af94751-1674-4a27-8ee9-c9e00d0f55e4" d="m16.96,48.52c0-3.45,2.48-5.55,6.51-5.55,4.02,0,6.51,2.09,6.51,5.55,0,3.45-2.48,5.55-6.51,5.55-4.02,0-6.51-2.09-6.51-5.55Zm11.17,0c0-2.54-1.82-3.96-4.67-3.96-2.84,0-4.68,1.42-4.68,3.96,0,2.54,1.82,3.96,4.68,3.96s4.67-1.42,4.67-3.96Z"/><path class="uuid-4af94751-1674-4a27-8ee9-c9e00d0f55e4" d="m46.59,43.28v5.53c0,3.1-1.99,5.25-5.7,5.25-3.69,0-5.68-2.15-5.68-5.25v-5.53h1.79v5.41c0,2.35,1.39,3.77,3.89,3.77,2.51,0,3.9-1.42,3.9-3.77v-5.41h1.79Z"/><path class="uuid-4af94751-1674-4a27-8ee9-c9e00d0f55e4" d="m62.56,44.85h-4.77s0,8.9,0,8.9h-1.79v-8.9s-4.74,0-4.74,0v-1.57h11.31v1.57Z"/><path class="uuid-4af94751-1674-4a27-8ee9-c9e00d0f55e4" d="m67.43,53.75v-10.47h1.79v10.47h-1.79Z"/><path class="uuid-4af94751-1674-4a27-8ee9-c9e00d0f55e4" d="m85.51,52.9l1.45,1.57-1.03.93-1.7-1.84c-.88.34-1.91.51-3.08.51-4.02,0-6.51-2.09-6.51-5.55,0-3.45,2.48-5.55,6.51-5.55,4.02,0,6.51,2.09,6.51,5.55,0,1.91-.76,3.42-2.14,4.38Zm-2.51-.66l-1.56-1.67,1.05-.93,1.84,1.99c.94-.67,1.48-1.73,1.48-3.11,0-2.54-1.82-3.96-4.67-3.96-2.84,0-4.68,1.42-4.68,3.96s1.82,3.96,4.68,3.96c.67,0,1.3-.07,1.85-.24Z"/><path class="uuid-4af94751-1674-4a27-8ee9-c9e00d0f55e4" d="m104.27,43.28v5.53c0,3.1-1.99,5.25-5.7,5.25-3.69,0-5.68-2.15-5.68-5.25v-5.53h1.79v5.41c0,2.35,1.39,3.77,3.89,3.77,2.51,0,3.9-1.42,3.9-3.77v-5.41h1.79Z"/><path class="uuid-4af94751-1674-4a27-8ee9-c9e00d0f55e4" d="m120.64,52.18v1.57h-10.42v-10.47h10.27v1.57h-8.49s0,2.8,0,2.8h7.15v1.57h-7.15s0,2.96,0,2.96h8.64Z"/><path class="uuid-4af94751-1674-4a27-8ee9-c9e00d0f55e4" d="m144.96,43.28v10.47h-1.79v-4.5s-7.91,0-7.91,0v4.5h-1.79v-10.47h1.79v4.35s7.91,0,7.91,0v-4.35h1.79Z"/><path class="uuid-4af94751-1674-4a27-8ee9-c9e00d0f55e4" d="m150.37,48.52c0-3.45,2.48-5.55,6.51-5.55,4.02,0,6.51,2.09,6.51,5.55,0,3.45-2.48,5.55-6.51,5.55-4.02,0-6.51-2.09-6.51-5.55Zm11.17,0c0-2.54-1.82-3.96-4.67-3.96-2.84,0-4.68,1.42-4.68,3.96s1.82,3.96,4.68,3.96c2.84,0,4.67-1.42,4.67-3.96Z"/><path class="uuid-4af94751-1674-4a27-8ee9-c9e00d0f55e4" d="m178.32,44.85h-4.77s0,8.9,0,8.9h-1.79v-8.9s-4.74,0-4.74,0v-1.57h11.31v1.57Z"/><path class="uuid-4af94751-1674-4a27-8ee9-c9e00d0f55e4" d="m193.62,52.18v1.57h-10.42v-10.47h10.27v1.57h-8.49s0,2.8,0,2.8h7.15v1.57h-7.15s0,2.96,0,2.96h8.64Z"/><path class="uuid-4af94751-1674-4a27-8ee9-c9e00d0f55e4" d="m208.47,52.17v1.59h-9.51v-10.47h1.79v8.88s7.72,0,7.72,0Z"/><path class="uuid-4af94751-1674-4a27-8ee9-c9e00d0f55e4" d="m224.06,50.66c0,1.99-1.96,3.41-5.52,3.41-2.45,0-4.62-.72-6.25-2.12l1.12-1.27c1.42,1.27,3.1,1.84,5.2,1.84,2.33,0,3.62-.61,3.62-1.7s-1.32-1.36-3.95-1.59c-2.89-.24-5.61-.88-5.61-3.02,0-2.08,2.41-3.23,5.41-3.23,2.27,0,4.2.67,5.46,1.73l-1.14,1.23c-1.08-.94-2.56-1.39-4.29-1.41-1.66-.02-3.63.39-3.63,1.56,0,1.11,1.75,1.3,4.04,1.48,3.26.25,5.53.91,5.53,3.1Z"/></g></g></svg>