<?xml version="1.0" encoding="UTF-8"?><svg id="uuid-6b106ad7-b706-4c8a-82e2-a7de5b0afec3" xmlns="http://www.w3.org/2000/svg" viewBox="0 0 258.53 163.42"><defs><style>.uuid-82cd63bd-245e-4f4d-b523-7f23bc5165b4{fill:#cab44b;}.uuid-28f053c4-e64c-4c50-b4e3-0d4527552d35{fill:#243746;}</style></defs><g id="uuid-75f88895-1db8-42ba-ab91-01e885a8c39d"><rect class="uuid-82cd63bd-245e-4f4d-b523-7f23bc5165b4" x="27.14" y="105.75" width="54.93" height="54.93" rx="20.79" ry="20.79" transform="translate(-78.2 77.63) rotate(-45)"/><g><path class="uuid-28f053c4-e64c-4c50-b4e3-0d4527552d35" d="m37.31,125.25l-1.65-2.93c-.36-.64.34-1.22.92-.78l2.59,2.04c.52.39.72.34.62-.38l-.4-3.2c-.09-.79.73-.99,1.07-.53.02.03.04.07.06.11l1.65,2.93,2,3.55c.42.75-.64,1.33-1.03.61l-1.7-3.03c-.19-.38-.41-.15-.38.04.08.61.13,1.07.2,1.67.08.63-.51.99-1.02.6l-1.31-1.03c-.28-.21-.37.11-.29.22.63,1.12,1.11,1.96,1.73,3.08.4.72-.64,1.32-1.06.57l-2-3.55Z"/><path class="uuid-28f053c4-e64c-4c50-b4e3-0d4527552d35" d="m45.84,123.74c-.18-.71-.35-1.43-.52-2.15-.17-.74-.35-1.47-.51-2.21-.62-2.78,3.33-3.66,3.99-.89.17.71.34,1.43.51,2.14.17.71.33,1.42.5,2.13.64,2.78-3.28,3.76-3.98.98Zm2.26-2.86l-.52-2.22c-.26-1.09-1.93-.75-1.59.51.17.7.33,1.4.5,2.12.17.71.34,1.42.5,2.13.26,1.27,1.91.83,1.65-.26l-.54-2.28Z"/><path class="uuid-28f053c4-e64c-4c50-b4e3-0d4527552d35" d="m53.57,119.82v-2.17c0-.45-.26-.52-.59-.51h-.56c-.83,0-.85-1.34,0-1.33l3.55.02c.86,0,.84,1.34,0,1.32h-.71c-.36,0-.49.1-.49.51v2.1s-.04,4.13-.04,4.13c0,.82-1.2.84-1.19-.02l.03-4.06Z"/><path class="uuid-28f053c4-e64c-4c50-b4e3-0d4527552d35" d="m59.02,122.61c.18-.71.38-1.42.57-2.14.2-.73.4-1.45.61-2.18.79-2.74,4.68-1.62,3.94,1.13-.19.71-.39,1.42-.58,2.12-.19.71-.39,1.4-.58,2.11-.77,2.75-4.68,1.72-3.96-1.05Zm3.36-1.43l.6-2.2c.3-1.08-1.33-1.58-1.64-.32-.19.7-.38,1.39-.58,2.1-.19.71-.39,1.4-.58,2.11-.38,1.24,1.28,1.64,1.57.56l.62-2.26Z"/><path class="uuid-28f053c4-e64c-4c50-b4e3-0d4527552d35" d="m66.62,122.63l1.82-3.1c.23-.4.78-.48,1.04-.28l1.57.92c.98.57.88,2.06.24,3.23-.46.83-.87,1.14-1.68,1.54-.31.16-.7.4-.7,1.02l-.23,1.91c-.06.82-1.27.72-1.2-.13l.22-2.62c.06-.59-.64-.87-.98-.3l-.96,1.63c-.4.71-1.45.11-1.02-.63l1.86-3.19Zm1.7.72l.44.26c.54.31,1.2-.18,1.55-.83.34-.63.4-1.42-.2-1.78l-.33-.2c-.25-.14-.61-.11-.82.21l-.89,1.52c-.16.27-.07.65.25.81Z"/></g><g><path class="uuid-28f053c4-e64c-4c50-b4e3-0d4527552d35" d="m38.45,144.98l1.02.86c.57.46-.21,1.37-.78.93-.6-.5-1.21-1.02-1.81-1.52-.53-.46-.28-.82,0-1.14l2.43-2.9,2.25-2.68c.55-.66,1.47.13.93.75l-2.24,2.67-1.81,2.16c-.2.24-.38.56,0,.88Z"/><path class="uuid-28f053c4-e64c-4c50-b4e3-0d4527552d35" d="m43.7,147.68c.24-.69.49-1.38.75-2.09.26-.71.51-1.42.78-2.13,1.01-2.67,4.79-1.24,3.83,1.45-.25.69-.5,1.38-.75,2.07-.25.69-.5,1.37-.75,2.06-.98,2.67-4.8,1.34-3.86-1.36Zm3.46-1.15l.78-2.14c.38-1.05-1.2-1.68-1.61-.45-.25.68-.49,1.36-.74,2.05-.25.69-.5,1.37-.75,2.06-.48,1.2,1.14,1.74,1.53.69l.8-2.2Z"/><path class="uuid-28f053c4-e64c-4c50-b4e3-0d4527552d35" d="m53.77,143.47c1.59.34,2.1,2.77,2.13,4.22.03,1.44-.38,3.92-1.95,4.33-.45.11-.99.11-1.72.12-.24,0-.75-.07-.76-.64l-.08-3.67-.08-3.72c-.01-.56.5-.66.73-.66.72-.03,1.27-.06,1.72.03Zm-.48,1.33h-.34c-.36.01-.36.5-.34.79.02.74.03,1.46.05,2.19.02.73.03,1.46.05,2.19,0,.29.02.77.38.76h.34c.8-.02,1.25-1.53,1.22-3.01-.03-1.49-.55-2.94-1.34-2.92Z"/><path class="uuid-28f053c4-e64c-4c50-b4e3-0d4527552d35" d="m61.15,149.38c.18.14.43.17.79,0,.38-.18.71-.46.48-1.08l-.19-.51c-.08-.21-.35-.22-.44-.19l-.16.07c-.67.26-1.13-.87-.46-1.13.31-.13.68-.27.99-.4.52-.2.74.03.88.39.16.4.38.95.54,1.33.15.37.22.78.14,1.19-.11.66-.66,1.22-1.32,1.53-.63.28-1.36.32-1.9-.04-.41-.26-.72-.81-.89-1.27l-.83-2.04-.75-1.86c-.18-.45-.36-1.05-.24-1.53.13-.6.64-1.07,1.27-1.32.69-.26,1.52-.26,2.08.16.34.24.57.59.72.96l.24.59c.29.66-.81,1.25-1.14.47l-.24-.57c-.21-.49-.7-.59-1.09-.45-.41.14-.73.52-.53.98l.86,2.14.78,1.97c.11.27.23.48.4.62Z"/><path class="uuid-28f053c4-e64c-4c50-b4e3-0d4527552d35" d="m64.84,138.92c.53-.49,1.32.4.81.89-.33.3-.64.58-.97.88-.22.2-.33.52-.08.81.33.36.63.69.94,1.04.21.25.49.33.71.11l.74-.67c.54-.5,1.33.39.81.88-.26.23-.51.46-.77.69-.17.15-.22.4.04.67.33.32.62.68.93,1.03.21.23.51.45.87.12l1-.9c.53-.49,1.32.4.8.9l-1.74,1.58c-.52.47-.85.18-1.14-.14l-2.53-2.79c-.75-.83-1.52-1.68-2.26-2.52-.38-.41-.23-.73.09-1.01l1.74-1.58Z"/></g><rect class="uuid-28f053c4-e64c-4c50-b4e3-0d4527552d35" x="46.04" y="132.58" width="15.55" height="1.27" rx=".63" ry=".63"/><circle class="uuid-28f053c4-e64c-4c50-b4e3-0d4527552d35" cx="72.77" cy="133.37" r="1.27"/><circle class="uuid-28f053c4-e64c-4c50-b4e3-0d4527552d35" cx="35.54" cy="134.03" r="1.27"/><g><path class="uuid-28f053c4-e64c-4c50-b4e3-0d4527552d35" d="m83.45,76.4c2.69-9.54,8.62-19.25,15.22-20.55,5.71-1.24,8.39,3.32,6.63,9.79-2.39,9.13-9.34,14.54-16.45,17.44-.69.25-2.38,1.97-2.41,3.59.08,1.6.26,2.72.83,3.88,1.14,2.55,3.39,3.03,5.86,2.32,7.49-2.05,13.05-13.31,16.39-20.43,1.01-2.05,3.94-.89,2.82,1.64-3.95,8.63-10.21,20.72-19.09,23.39-3.85,1.22-7.66.35-9.87-3.26-2.2-3.84-1.91-10.83.06-17.8Zm6.95,1.18c4.75-2.32,9.61-5.93,11.17-12.24.73-2.8.18-5.46-2.68-4.56-4.14,1.39-7.86,7.32-10.21,13.79-.62,1.97-.45,3.78,1.72,3.01Z"/><path class="uuid-28f053c4-e64c-4c50-b4e3-0d4527552d35" d="m109.83,71.22c2.69-9.54,8.62-19.25,15.22-20.55,5.71-1.24,8.39,3.32,6.63,9.79-2.39,9.13-9.34,14.54-16.45,17.44-.69.25-2.38,1.97-2.41,3.59.08,1.6.26,2.72.83,3.88,1.14,2.55,3.39,3.03,5.86,2.32,7.49-2.05,13.05-13.31,16.39-20.43,1.01-2.05,3.94-.89,2.82,1.64-3.95,8.63-10.21,20.72-19.09,23.39-3.85,1.22-7.66.35-9.87-3.26-2.2-3.84-1.91-10.83.06-17.8Zm6.95,1.18c4.75-2.32,9.61-5.93,11.17-12.24.73-2.8.18-5.46-2.68-4.56-4.14,1.39-7.86,7.32-10.21,13.79-.62,1.97-.45,3.78,1.72,3.01Z"/><path class="uuid-28f053c4-e64c-4c50-b4e3-0d4527552d35" d="m147.51,85.31c-1.89,1.53-4.06,2.53-6.62,2.69-2.16.19-4.6-.71-5.65-2.82-2.27-5.68-.37-15.29,1.82-23.93,1.86-6.83,3.74-14.25,5.6-20.97.93-3.18-1.71-3.71-2.1-3.74-19.12-1.21-43.1-6.21-61.89,17.24-.9,1.22-2.48,1.64-3.25.64-.97-.85-.84-2.84.16-4.07,20.59-25.88,45.94-20.34,66.63-19.21,1.86.21,3.85-1.56,4.46-3.3,2.15-5.85,5.08-11.74,9.26-16.03,9.67-10.1,17.99-1.91,9.36,11.45-3.61,5.33-8.18,9.23-13.41,11.3-1.48.64-2.68,1.8-3.49,3.69-.52,1.95-1.14,4.04-1.56,5.85-.72,2.57-.83,3.4,1.64,1.87,3.37-2.05,7.78-1.99,9.61,1,1.92,3.09,1.71,10.52-.26,18.07-.94,3.65-2.17,7.47-3.69,10.89-.31.99-1.12,2.64-.45,3.79.48.71,1.06,1.06,1.85.91,4.63-1.37,9.53-14,12.06-19.35.91-2.03,3.84-.87,2.72,1.66-3.04,6.72-7.84,19.56-14.65,22.17-1.68.68-3.25.64-4.42-.17-1.07-.83-2.64-.4-3.74.39Zm4.46-16.7l.92-2.84c1.86-6.37,2.43-12.03,1.19-14.1-1.25-2.07-3.12-1.58-5.11.08-2.78,2.28-4.89,5.81-6.63,10.31-2.75,7.24-3.86,15.66-2.43,19.08,1.14,2.78,4.3,1.35,6.19-.75,1.2-1.27,1.1-1.72.73-3.15-1.22-3.57.79-7.32,3.63-6.84.98.15,1.19-.81,1.5-1.8Zm10.41-48.26c4.42-7.11,1.72-10.51-3.86-4.9-2.69,2.72-4.71,6.7-6.24,10.58-.61,1.28-.74,3.96,1.44,2.49,3.27-1.8,6.45-4.62,8.66-8.17Z"/><path class="uuid-28f053c4-e64c-4c50-b4e3-0d4527552d35" d="m165.58,78.18c-1.03-3.38-.26-9.19,1-15.21,1.68-7.49,4.15-15.26,5.09-19.25.84-3.86,6.04-3.84,4.4,1.33-.72,2.34-3.3,10.7-4.97,17.96-.84,3.63-1.48,6.99-1.61,9.56-.15,3.38.72,4.83,2.49,4.36,4.63-1.37,9.53-14,12.06-19.35.91-2.03,3.84-.87,2.72,1.66-3.04,6.72-7.84,19.56-14.65,22.17-3.16,1.31-5.6.06-6.53-3.22Zm14.83-48.43c-.03,1.97-1.43,3.86-3.1,4.19-1.67.33-2.93-1.04-2.9-3.01.03-1.97,1.33-3.84,3-4.17,1.67-.33,3.03,1.02,3,2.99Z"/><path class="uuid-28f053c4-e64c-4c50-b4e3-0d4527552d35" d="m223.23,68.83c-1.05-2.1-2.53-1.23-3.93.54-1.1,1.14-2.09,2.14-3.08,2.92-4.27,3.5-7.88,2.24-9.9-1.06-2.3-3.94-1.9-11.18-.13-18.23,1.97-7.55,5.61-14.97,9.59-18.29,2.19-1.82,4.36-2.59,6.22-2.49,1.57.15,3.13.65,4.19,1.95.29.29.48.6.77.77.87.75,1.08-.33,1.39-1.31l7.38-28.6c.62-2.08,2.21-3.21,3.48-2.99,1.08.25,1.94,1.35,1.63,2.91-1.78,7.51-4.57,17.53-7.17,27.63-1.67,6.68-3.33,13.36-4.7,19.29-.84,3.75-1.58,7.24-2.11,10.23-.85,4.56,2.29,4.63,4.68,2.08,4.18-4.06,8.33-19.66,18.54-19.81,8.93-.14,9.75,11.6,7.17,20.43-4.45,15.89-12.74,25.95-22.75,32.19-21.3,13.31-50.78,9.39-70.02,9.24-22.47-.21-40.84,6.98-60.05,26-2.29,2.41-5.58-1.33-2.19-4.54,20.7-19.78,38.87-27.16,62.91-26.8,19.14.17,48.23,4.39,68.64-9.09,8.33-5.56,15.22-13.96,19.33-26.9,1.85-5.79,2.49-15.97-3.89-15.75-6.58.25-10.39,12.78-15.38,18.15-3.29,3.77-8.33,6.14-10.62,1.51Zm-1.12-31.43c-1.27-.33-3.05.25-5.04,2.37-2.29,2.3-4.53,7.47-5.98,12.96-1.55,5.74-2.23,11.88-.9,14.85.66,1.6,2.02,2.61,4.3,1,3.27-2.26,7.19-8.69,8.86-15.26,1.35-5.35,2.11-10.47,1.27-13.42-.38-1.2-1.44-2.26-2.52-2.51Z"/></g><path class="uuid-28f053c4-e64c-4c50-b4e3-0d4527552d35" d="m193.48,37.09c-.02,1.04-.54,3.22-.96,5.04-.2.5-.52,1.83.75,2.16,1.76.46,4.78,1.83,6.34,2.8,3.31,2.24,2.29,4.87.33,10.91-1.95,5.81-4.29,11.93-4.54,15.22-.02,1.16.46,1.99,1.25,2.07,3.33.62,5.62,5.25-1.55,5.16-2.85-.02-4.58-2.1-4.64-4.87.17-4.77,3.22-12.42,5.17-18.11.72-2.22,1.93-4.65-.6-6.01-.88-.52-1.95-.89-2.93-1.16-.69-.1-2.07.29-2.68,2.03-1.54,4.58-3.27,8.96-5.39,13.31-.92,2.26-4.14,1.51-2.72-1.78,1.72-3.8,3.66-8.81,5.2-13.38.72-1.99.51-1.6-.06-2.65-1.33-2.74.42-8.63,2.22-11.18,1.8-2.43,4.63-1.49,4.8.44Z"/><path class="uuid-28f053c4-e64c-4c50-b4e3-0d4527552d35" d="m39.12,74.73c-2.62,9.7-4.8,16.42-8.31,26.18-4.86,13.53-16.2,28.86-27.99,26.06-4.76-.97-2.58-7.32-.11-6.49,9.99,2.92,18.91-9.14,23.04-20.23,3.5-9.04,5.47-14.86,7.89-23.92,1.35-4.13,6.32-4.66,5.49-1.59Zm17.53-46.02c17.24-3.98,29.49-13.09,45.71-21.93C110.17,2.54,118.17-.53,125.91.08c5.06.3,9.9,2.94,12.2,8.39,2.31,5.69-2.99,7.72-3.94,4.66-1.42-4.78-5.37-6.63-9.44-7.14-6.35-.89-13.74,1.82-21.14,5.73-18.02,9.56-28.49,19.16-47.91,22.86-1.89.26-5.51,3.05-6.65,6.66-1.87,6.17-3.43,10.47-5.2,16.74-.63,2.42-.07,5.2,2.12,4.88,0,0,.1-.02.2-.04,2.19-.57,4.28-.87,6.27-1.03.72-1.95,1.64-3.83,2.66-5.61,1.72-2.28,4.68-1.07,3.14,2.5-2.86,5.89-4.01,9.38-4.79,15.81-.65,3.87-3.82,3.43-4.08.71.13-2.44.57-5.06,1.2-7.6-2.78.2-5.78.93-8.77,2.02-3.2,1.13-6.6,2.78-9.7,4.62-3.41,2.02-6.52,4.46-9.34,7.08-3.22,2.82-4.75-1.21-2.93-3.87,3.03-3.51,7.45-6.7,12.45-9.4,3.11-2.2,4.74-4.7,5.98-8.57,1.88-6.78,3.65-12.32,5.83-18.92,1.46-4.76-3.62-3.97-4.51-4.03-6.06.02-15.56-2.4-20.28,1.09-4.42,3.07-7.18,8.94-7.75,14-1.03,9.98,7.48,12.48,12.85,5,2.32-2.52,5.05,1.03,2.53,3.95-9.08,10.17-20.67,7.45-20.26-7.6.2-7.4,4.2-16.05,11.21-20.13,4.91-2.93,9.88-2.85,14.84-2.64,9.03.58,16.19.34,23.97-1.48Z"/><path class="uuid-28f053c4-e64c-4c50-b4e3-0d4527552d35" d="m71.14,59.07c-.02,1.04-.54,3.22-.96,5.04-.2.5-.52,1.83.75,2.16,1.76.46,4.78,1.83,6.34,2.8,3.31,2.24,2.29,4.87.33,10.91-1.95,5.81-4.29,11.93-4.54,15.22-.02,1.16.46,1.99,1.25,2.07,3.33.62,5.62,5.25-1.55,5.16-2.85-.02-4.58-2.1-4.64-4.87.17-4.77,3.22-12.42,5.17-18.11.72-2.22,1.93-4.65-.6-6.01-.88-.52-1.95-.89-2.93-1.16-.69-.1-2.07.29-2.68,2.03-1.54,4.58-3.27,8.96-5.39,13.31-.92,2.26-4.14,1.51-2.72-1.78,1.72-3.8,3.66-8.81,5.2-13.38.72-1.99.51-1.6-.06-2.65-1.33-2.74.42-8.63,2.22-11.18,1.8-2.43,4.63-1.49,4.8.44Z"/></g></svg>