<?xml version="1.0" encoding="UTF-8"?><svg id="uuid-ede485eb-6810-4a1b-a1dd-26430f01ac89" xmlns="http://www.w3.org/2000/svg" viewBox="0 0 44.96 26.34"><defs><style>.uuid-4ae69943-d80a-436e-a6a3-e831e7562150{fill:#243746;}</style></defs><g id="uuid-2d97f1c7-c9af-40b7-bfe3-9bdcaa6c1c2a"><g><path class="uuid-4ae69943-d80a-436e-a6a3-e831e7562150" d="m30.92,9.75c.12.35.21.64.31.92.16.42.33.83.51,1.25.11.26.24.31.5.24.22-.06.45-.13.66-.21.2-.07.24-.17.15-.38-.2-.45-.41-.89-.61-1.33-.08-.18-.13-.39-.22-.56-.04-.08-.16-.16-.23-.16-.28,0-.56.03-.84.08-.09.01-.16.11-.23.16Z"/><g><path class="uuid-4ae69943-d80a-436e-a6a3-e831e7562150" d="m23.17,6.94c.11.67.21,1.35.33,2.02.05.27.18.36.45.37,1.08.05,2.17.15,3.25.12,1.24-.04,2.48-.17,3.72-.33,1.04-.14,2.08-.36,3.1-.61.57-.14,1.1-.41,1.64-.65.54-.24,1.07-.5,1.6-.76.18-.09.34-.2.5-.32.28-.21.33-.51.1-.77-.24-.28-.48-.58-.78-.79-.78-.56-1.66-.62-2.58-.39-1.37.35-2.73.72-4.11,1.03-1.54.35-3.12.55-4.7.44-.56-.04-1.11-.26-1.66-.43-.46-.14-.78.04-.81.52-.01.19,0,.37,0,.56-.02,0-.04,0-.07,0Z"/><path class="uuid-4ae69943-d80a-436e-a6a3-e831e7562150" d="m17.94,6.18c-1.33.01-2.64-.08-3.95-.28-.61-.09-1.22-.22-1.81-.39-.98-.29-1.92-.71-2.94-.86-.7-.1-1.29.12-1.83.51-.28.2-.51.47-.74.73-.2.23-.18.36.04.56.77.7,1.62,1.27,2.64,1.51.9.21,1.8.39,2.72.53.98.15,1.96.27,2.94.34,1.17.09,2.34.12,3.52.17.38.02.76.05,1.14.06.35,0,.41-.05.46-.38.12-.73.25-1.47.36-2.2.04-.25-.06-.37-.32-.37-.2,0-.4.02-.61.03,0,.02-1.09.05-1.63.06Z"/><path class="uuid-4ae69943-d80a-436e-a6a3-e831e7562150" d="m37.3,7.83c.11.18.19.35.31.5.8,1.04,1.67,2.03,2.66,2.9.63.54,1.31,1.03,1.96,1.54.27.21.55.41.81.63.11.09.19.1.33.05.41-.17.83-.3,1.25-.46.12-.05.22-.14.33-.22-.08-.1-.13-.23-.23-.3-.63-.47-1.26-.94-1.91-1.38-1.27-.88-2.38-1.92-3.34-3.13-.21-.26-.4-.53-.62-.78-.22-.24-.36-.25-.63-.06-.25.17-.5.34-.75.52-.06.05-.11.12-.19.2Z"/><path class="uuid-4ae69943-d80a-436e-a6a3-e831e7562150" d="m1.38,12.98c.1-.03.18-.04.24-.09.32-.24.64-.49.95-.74.24-.19.48-.39.72-.58,1.39-1.1,2.57-2.4,3.57-3.86.13-.18.12-.31-.05-.45-.19-.16-.37-.33-.56-.49-.12-.1-.23-.1-.34.06-.35.47-.69.94-1.08,1.37-.65.71-1.34,1.38-2,2.07-.53.55-1.19.9-1.81,1.33-.29.2-.59.39-.88.61-.19.14-.18.25.04.34.4.16.81.3,1.21.44Z"/><path class="uuid-4ae69943-d80a-436e-a6a3-e831e7562150" d="m41.16,14.16c.32-.12.65-.21.95-.36.3-.15.3-.35.02-.54-.26-.18-.52-.37-.78-.55-.79-.54-1.43-1.24-2.09-1.92-.53-.55-1.04-1.11-1.54-1.69-.23-.27-.42-.58-.64-.86-.2-.26-.28-.27-.57-.12-.15.07-.28.16-.44.22-.22.08-.23.21-.12.38.16.25.32.51.52.75.84,1.02,1.67,2.05,2.55,3.03.47.53,1.04.97,1.59,1.43.14.12.34.15.55.23Z"/><path class="uuid-4ae69943-d80a-436e-a6a3-e831e7562150" d="m38.87,14.01c.17,0,.34.01.51,0,.21-.02.27-.16.14-.32-.16-.19-.34-.36-.51-.55-.83-.97-1.67-1.93-2.48-2.91-.36-.43-.65-.91-.98-1.36-.18-.24-.33-.26-.61-.14-.16.07-.33.14-.5.2-.24.08-.3.19-.17.4.34.55.68,1.11,1.06,1.64.5.68,1.02,1.35,1.56,2,.24.29.53.55.81.8.21.18.62.25,1.16.24Z"/><path class="uuid-4ae69943-d80a-436e-a6a3-e831e7562150" d="m3.75,13.54c.08-.04.18-.06.25-.13.79-.78,1.6-1.53,2.34-2.36.73-.82,1.36-1.73,2.04-2.59.13-.16.08-.26-.09-.34-.22-.11-.45-.21-.67-.33-.12-.06-.18-.03-.25.06-.65.81-1.26,1.66-1.96,2.43-.6.66-1.3,1.24-1.96,1.84-.32.29-.66.56-1,.83-.14.12-.13.22.04.27.41.11.82.21,1.26.32Z"/><path class="uuid-4ae69943-d80a-436e-a6a3-e831e7562150" d="m5.1,13.58c.47,0,.93.02,1.4,0,.14,0,.32-.09.42-.2,1.07-1.13,1.89-2.43,2.68-3.77.14-.24.29-.48.43-.72.1-.16.06-.28-.13-.33-.22-.05-.44-.1-.65-.17-.22-.07-.33.03-.44.19-.24.4-.46.82-.75,1.17-.6.73-1.23,1.43-1.86,2.14-.4.45-.82.89-1.22,1.34-.06.07-.11.19-.1.28,0,.04.15.08.23.11,0-.02,0-.03,0-.05Z"/><path class="uuid-4ae69943-d80a-436e-a6a3-e831e7562150" d="m36.71,13.79c.05-.03.15-.04.16-.09.02-.05,0-.14-.04-.19-.18-.22-.35-.46-.55-.66-.62-.61-1.06-1.36-1.51-2.08-.32-.51-.62-1.04-.94-1.55-.04-.06-.16-.11-.23-.1-.28.05-.56.13-.83.21-.14.04-.19.13-.13.27.36.77.61,1.59,1.1,2.3.33.48.77.78,1.26,1.04.48.26.97.51,1.46.76.07.04.16.05.26.08Z"/><path class="uuid-4ae69943-d80a-436e-a6a3-e831e7562150" d="m10.72,8.75c-.07.06-.16.13-.22.22-.46.76-.9,1.54-1.38,2.29-.38.58-.83,1.12-1.24,1.68-.05.07-.09.21-.05.26.04.06.19.1.26.08.98-.33,1.92-.76,2.49-1.68.32-.52.54-1.1.8-1.65.11-.23.21-.47.3-.7.05-.13.05-.25-.12-.29-.26-.07-.53-.12-.84-.19Z"/><path class="uuid-4ae69943-d80a-436e-a6a3-e831e7562150" d="m23.87,23.85c-.08-.35-.17-.7-.25-1.05,0-.02,0-.05-.02-.07-.1-.34-.18-.35-.45-.14-.2.16-.24.33-.25.58-.04.98-.02,1.98-.35,2.93-.02.07,0,.18.04.22.04.04.16.03.22,0,.38-.2.75-.42,1.04-.76.12-.15.17-.3.15-.47-.05-.41-.12-.82-.18-1.23h.04Z"/><path class="uuid-4ae69943-d80a-436e-a6a3-e831e7562150" d="m28.19,9.8c-.23.02-.5.05-.76.04-.18,0-.23.07-.19.22.09.33.18.66.28.98.13.41.27.83.4,1.24.06.19.15.32.37.32.28,0,.56.04.84.03.17,0,.32-.07.25-.31-.13-.44-.26-.89-.39-1.33-.09-.31-.18-.63-.24-.95-.04-.21-.12-.3-.34-.25-.06.01-.12,0-.22,0Z"/><path class="uuid-4ae69943-d80a-436e-a6a3-e831e7562150" d="m30.16,9.7c-.3.03-.58.05-.86.07-.2.01-.24.13-.19.29.22.68.43,1.36.66,2.03.09.28.23.38.52.37.26,0,.51-.04.77-.08.23-.04.29-.14.22-.36-.22-.68-.45-1.35-.67-2.03-.08-.24-.22-.35-.45-.29Z"/><path class="uuid-4ae69943-d80a-436e-a6a3-e831e7562150" d="m25.03,23.62c-.19-.48-.37-.95-.56-1.43-.07-.17-.15-.33-.22-.5-.06-.12-.14-.11-.23-.03-.24.2-.27.47-.17.84.16.56.29,1.12.41,1.68.04.18,0,.38,0,.56,0,.06.04.14.08.16.04.02.14,0,.17-.04.22-.27.43-.54.49-.89.02-.11,0-.22,0-.33.01,0,.02-.01.03-.02Z"/><path class="uuid-4ae69943-d80a-436e-a6a3-e831e7562150" d="m14,11.95c.64.06.65.06.8-.55.14-.59.28-1.17.41-1.76.05-.22-.02-.29-.24-.31-.26-.02-.51-.04-.76-.07-.16-.02-.24.05-.28.2-.19.71-.39,1.41-.58,2.12-.07.27,0,.36.27.37.13,0,.26,0,.4,0Z"/><path class="uuid-4ae69943-d80a-436e-a6a3-e831e7562150" d="m12.45,11.8c.18,0,.28-.07.33-.24.19-.66.4-1.32.58-1.98.08-.3.04-.34-.27-.39-.21-.03-.41-.06-.62-.09-.17-.02-.27.04-.34.23-.16.45-.36.89-.54,1.33-.08.19-.15.38-.23.56-.09.17-.04.3.13.35.32.09.64.16.97.24Z"/><path class="uuid-4ae69943-d80a-436e-a6a3-e831e7562150" d="m17.09,9.5c-.36-.03-.72-.06-1.08-.07-.05,0-.13.06-.14.11-.15.53-.29,1.06-.42,1.59-.06.23-.08.47-.14.71-.05.19.03.27.2.28.28.02.56.04.84.06.14,0,.24-.04.27-.19.16-.78.32-1.56.48-2.35,0-.03,0-.06-.01-.14Z"/><path class="uuid-4ae69943-d80a-436e-a6a3-e831e7562150" d="m26.84,12.57c.11,0,.22,0,.33,0,.28-.02.35-.14.27-.4-.17-.54-.33-1.07-.5-1.61-.05-.15-.09-.31-.12-.47-.04-.18-.14-.24-.32-.24-.24.01-.48.03-.72.02-.2,0-.26.12-.23.26.14.58.29,1.15.44,1.72.03.11.1.22.11.33.04.31.24.37.49.36.08,0,.16,0,.23.01,0,0,0,0,0,0Z"/><path class="uuid-4ae69943-d80a-436e-a6a3-e831e7562150" d="m18.74,10.08c.04-.53.03-.54-.33-.55-.16,0-.33-.01-.49-.02-.16,0-.26.05-.29.23-.13.73-.26,1.46-.39,2.19-.04.23.03.32.27.33.26,0,.53-.02.79-.06.06,0,.14-.1.15-.17.05-.25.07-.51.11-.76.07-.45.15-.9.2-1.2Z"/><path class="uuid-4ae69943-d80a-436e-a6a3-e831e7562150" d="m25.71,22.21c-.13-.27-.23-.5-.34-.71-.14-.26-.28-.52-.42-.78-.08-.14-.17-.11-.25-.01-.09.11-.17.23-.25.34-.13.19-.01.36.05.52.21.51.44,1.02.67,1.52.07.15.22.18.26.05.11-.32.2-.65.28-.94Z"/><path class="uuid-4ae69943-d80a-436e-a6a3-e831e7562150" d="m26.03,20.14c-.15-.25-.28-.54-.53-.75-.08-.06-.13-.03-.17.05-.09.21-.18.42-.26.64-.02.06.02.15.06.21.18.3.37.59.56.88.03.05.08.08.12.12.04-.05.1-.09.11-.14.04-.18.06-.36.08-.54.02-.15.02-.29.03-.47Z"/><path class="uuid-4ae69943-d80a-436e-a6a3-e831e7562150" d="m21.1,23.85c.08-.35.17-.7.25-1.05,0-.02,0-.05.02-.07.1-.34.18-.35.45-.14.2.16.24.33.25.58.04.98.02,1.98.35,2.93.02.07,0,.18-.04.22-.04.04-.16.03-.22,0-.38-.2-.75-.42-1.04-.76-.12-.15-.17-.3-.15-.47.05-.41.12-.82.18-1.23h-.04Z"/><path class="uuid-4ae69943-d80a-436e-a6a3-e831e7562150" d="m19.94,23.62c.19-.48.37-.95.56-1.43.07-.17.15-.33.22-.5.06-.12.14-.11.23-.03.24.2.27.47.17.84-.16.56-.29,1.12-.41,1.68-.04.18,0,.38,0,.56,0,.06-.04.14-.08.16-.04.02-.14,0-.17-.04-.22-.27-.43-.54-.49-.89-.02-.11,0-.22,0-.33-.01,0-.02-.01-.03-.02Z"/><path class="uuid-4ae69943-d80a-436e-a6a3-e831e7562150" d="m19.25,22.21c.13-.27.23-.5.34-.71.14-.26.28-.52.42-.78.08-.14.17-.11.25-.01.09.11.17.23.25.34.13.19.01.36-.05.52-.21.51-.44,1.02-.67,1.52-.07.15-.22.18-.26.05-.11-.32-.2-.65-.28-.94Z"/><path class="uuid-4ae69943-d80a-436e-a6a3-e831e7562150" d="m18.93,20.14c.15-.25.28-.54.53-.75.08-.06.13-.03.17.05.09.21.18.42.26.64.02.06-.02.15-.06.21-.18.3-.37.59-.56.88-.03.05-.08.08-.12.12-.04-.05-.1-.09-.11-.14-.04-.18-.06-.36-.08-.54-.02-.15-.02-.29-.03-.47Z"/><path class="uuid-4ae69943-d80a-436e-a6a3-e831e7562150" d="m20.45,5.8s.9-1.14.25-2.14,1.16-2.62,1.75-2.62,1.93,1.38,1.75,2.38-.66.57-.13,2.38h-3.62Z"/><polygon class="uuid-4ae69943-d80a-436e-a6a3-e831e7562150" points="21.76 1.36 22.33 0 23.09 1.36 21.76 1.36"/><path class="uuid-4ae69943-d80a-436e-a6a3-e831e7562150" d="m23.46,2.75h-2.27s-4.39,12.62-.65,17.27c0,0,.46,1.05,1.16,1.58l.63-12.95.93,12.95c.36-.28.73-.77,1.11-1.57,0,0,3.42-2.91-.9-17.27Z"/></g></g></g></svg>